# xmcd
#
# Track frame offsets: 
#        150
#        14381
#        30629
#        44511
#        67864
#        81070
#        99990
#        117841
#        165600
#
# Disc length: 2403 seconds
#
# Revision: 0
# Processed by: cddbd v1.5.2PL0 Copyright (c) Steve Scherf et al.
# Submitted via: ExactAudioCopy v1.2
#
DISCID=64096109
DTITLE=Teddy Young and the Aces - Movin' On
DYEAR=2017
DGENRE=Blues
TTITLE0=Let's Start All over Again
TTITLE1=Movin' On
TTITLE2=Stay Outa My Business
TTITLE3=Buddah Fly
TTITLE4=Chico's Funk
TTITLE5=Dynomite
TTITLE6=Try
TTITLE7=Young Man's Blues
TTITLE8=Teddy and the Band
EXTD=
EXTT0=
EXTT1=
EXTT2=
EXTT3=
EXTT4=
EXTT5=
EXTT6=
EXTT7=
EXTT8=
PLAYORDER=
